# xmcd CD database file generated by Grip 3.2.0
# 
# Track frame offsets:
#       150
#       13572
#       29720
#       45326
#       71563
#       79811
#       106461
#       129163
#       139515
#       149318
#       166490
#       185853
#       201254
#       217431
#       240795
# 
# Disc length: 3347 seconds
# 
# Revision: 1
# Processed by: cddbd v1.5.1PL0 Copyright (c) Steve Scherf et al.
# Submitted via: Grip 3.2.0
# 
DISCID=d90d110f
DTITLE=Various Artist - Truck 2001 - Abandon Your Cars
DYEAR=2001
DGENRE=Country
TTITLE0=Joel Plaskett Emergency - There's Love In The Air
TTITLE1=KaitO - Thwip-side
TTITLE2=JOR - Control
TTITLE3=The Rock Of Travolta Vs Satisfaction Jackson - I Love It When A Plan C
TTITLE3=omes Together (Nu Skool Monks Mix)
TTITLE4=Black Nielson - Still Life Hear Me
TTITLE5=Koda - Brave New World
TTITLE6=Rareform - Worst Case Scenario (Edit)
TTITLE7=Fonda 500 - number.dt2580
TTITLE8=Luke Smith - Please be my girlfriend
TTITLE9=The Samurai Seven - The Nunnery
TTITLE10=Blue Kite - Swim In Colours
TTITLE11=Apple In One (Juno Pixie)
TTITLE12=Goldrush - Same Picture (Acoustic)
TTITLE13=Medal - Drumsping
TTITLE14=Meanwhile Back In Communist Russia - Scared Mountain
EXTD=
EXTT0=
EXTT1=
EXTT2=
EXTT3=
EXTT4=
EXTT5=
EXTT6=
EXTT7=
EXTT8=
EXTT9=
EXTT10=
EXTT11=
EXTT12=
EXTT13=
EXTT14=
PLAYORDER=
